<svg width="48" height="48" viewBox="0 0 48 48" fill="none" xmlns="http://www.w3.org/2000/svg">
<rect width="48" height="48" rx="8" fill="url(#paint0_linear_21_24)"/>
<path d="M27.125 25.125C27.125 25.9538 26.7958 26.7487 26.2097 27.3347C25.6237 27.9208 24.8288 28.25 24 28.25C23.1712 28.25 22.3763 27.9208 21.7903 27.3347C21.2042 26.7487 20.875 25.9538 20.875 25.125C20.875 24.2962 21.2042 23.5013 21.7903 22.9153C22.3763 22.3292 23.1712 22 24 22C24.8288 22 25.6237 22.3292 26.2097 22.9153C26.7958 23.5013 27.125 24.2962 27.125 25.125V25.125Z" fill="white"/>
<path d="M16.5 19.5C15.837 19.5 15.2011 19.7634 14.7322 20.2322C14.2634 20.7011 14 21.337 14 22V29.5C14 30.163 14.2634 30.7989 14.7322 31.2678C15.2011 31.7366 15.837 32 16.5 32H31.5C32.163 32 32.7989 31.7366 33.2678 31.2678C33.7366 30.7989 34 30.163 34 29.5V22C34 21.337 33.7366 20.7011 33.2678 20.2322C32.7989 19.7634 32.163 19.5 31.5 19.5H30.035C29.372 19.4999 28.7362 19.2364 28.2675 18.7675L27.2325 17.7325C26.7638 17.2636 26.128 17.0001 25.465 17H22.535C21.872 17.0001 21.2362 17.2636 20.7675 17.7325L19.7325 18.7675C19.2638 19.2364 18.628 19.4999 17.965 19.5H16.5ZM17.125 22C16.9592 22 16.8003 21.9342 16.6831 21.8169C16.5658 21.6997 16.5 21.5408 16.5 21.375C16.5 21.2092 16.5658 21.0503 16.6831 20.9331C16.8003 20.8158 16.9592 20.75 17.125 20.75C17.2908 20.75 17.4497 20.8158 17.5669 20.9331C17.6842 21.0503 17.75 21.2092 17.75 21.375C17.75 21.5408 17.6842 21.6997 17.5669 21.8169C17.4497 21.9342 17.2908 22 17.125 22ZM28.375 25.125C28.375 26.2853 27.9141 27.3981 27.0936 28.2186C26.2731 29.0391 25.1603 29.5 24 29.5C22.8397 29.5 21.7269 29.0391 20.9064 28.2186C20.0859 27.3981 19.625 26.2853 19.625 25.125C19.625 23.9647 20.0859 22.8519 20.9064 22.0314C21.7269 21.2109 22.8397 20.75 24 20.75C25.1603 20.75 26.2731 21.2109 27.0936 22.0314C27.9141 22.8519 28.375 23.9647 28.375 25.125V25.125Z" fill="white"/>
<defs>
<linearGradient id="paint0_linear_21_24" x1="24" y1="0" x2="24" y2="48" gradientUnits="userSpaceOnUse">
<stop stop-color="#FD7DB2"/>
<stop offset="1" stop-color="#281662"/>
</linearGradient>
</defs>
</svg>
