<svg width="48" height="48" viewBox="0 0 48 48" fill="none" xmlns="http://www.w3.org/2000/svg">
<rect width="48" height="48" rx="8" fill="url(#paint0_linear_21_23)"/>
<path d="M20.625 17.3167L19.4333 16.125C17.4333 17.65 16.1167 20 16 22.6667H17.6667C17.7257 21.6098 18.0224 20.5799 18.5346 19.6537C19.0468 18.7274 19.7613 17.9285 20.625 17.3167V17.3167ZM30.95 22.6667H32.6167C32.4917 20 31.175 17.65 29.1833 16.125L28 17.3167C28.86 17.9316 29.5714 18.7313 30.0818 19.6571C30.5923 20.5828 30.889 21.6112 30.95 22.6667ZM29.3083 23.0833C29.3083 20.525 27.9417 18.3833 25.5583 17.8167V17.25C25.5583 16.5583 25 16 24.3083 16C23.6167 16 23.0583 16.5583 23.0583 17.25V17.8167C20.6667 18.3833 19.3083 20.5167 19.3083 23.0833V27.25L17.6417 28.9167V29.75H30.975V28.9167L29.3083 27.25V23.0833ZM24.3083 32.25C24.425 32.25 24.5333 32.2417 24.6417 32.2167C25.1833 32.1 25.625 31.7333 25.8417 31.2333C25.925 31.0333 25.9667 30.8167 25.9667 30.5833H22.6333C22.6417 31.5 23.3833 32.25 24.3083 32.25Z" fill="white"/>
<defs>
<linearGradient id="paint0_linear_21_23" x1="24" y1="0" x2="24" y2="48" gradientUnits="userSpaceOnUse">
<stop stop-color="#FD7DB2"/>
<stop offset="1" stop-color="#281662"/>
</linearGradient>
</defs>
</svg>
