<svg width="48" height="48" viewBox="0 0 48 48" fill="none" xmlns="http://www.w3.org/2000/svg">
<rect width="48" height="48" rx="8" fill="url(#paint0_linear_21_22)"/>
<path d="M23.9847 14V17.015H25.0088V14H23.9846H23.9847V14ZM19.803 14.9061L18.9639 15.4935L20.693 17.9627L21.5315 17.3752L19.803 14.9061ZM29.1903 14.9061L27.4618 17.3752L28.3005 17.9627L30.0295 15.4935L29.1905 14.9061H29.1903V14.9061ZM24.4965 17.84C21.9913 17.84 19.9604 19.3613 19.9604 21.2382L22.5376 29.0432H26.4559L29.0329 21.2382C29.0329 19.3613 27.0021 17.84 24.4968 17.84H24.4965V17.84ZM16.3499 18.7448L16 19.7077L18.8318 20.7387L19.183 19.7763L16.3498 18.7448H16.3499V18.7448ZM32.6434 18.7448L29.8102 19.7763L30.1602 20.7389L32.9934 19.7077L32.6434 18.7448V18.7448ZM19.0462 23.1466L16.1344 23.9276L16.3986 24.9161L19.3104 24.1362L19.0462 23.1466H19.0462V23.1466ZM29.9471 23.1466L29.6831 24.1362L32.5949 24.916L32.8589 23.9275L29.9471 23.1466V23.1466V23.1466ZM22.4805 29.6122V30.9689H26.513V29.6124H22.4805L22.4805 29.6122ZM22.4805 31.6433V33H26.513V31.6435H22.4805L22.4805 31.6433Z" fill="white"/>
<defs>
<linearGradient id="paint0_linear_21_22" x1="24" y1="0" x2="24" y2="48" gradientUnits="userSpaceOnUse">
<stop stop-color="#FD7DB2"/>
<stop offset="1" stop-color="#281662"/>
</linearGradient>
</defs>
</svg>
