<svg width="117" height="45" viewBox="0 0 117 45" fill="none" xmlns="http://www.w3.org/2000/svg">
<path d="M54.46 20.22H52.52V29H49.68V20.22H48.42V17.92H49.68V17.36C49.68 16 50.0667 15 50.84 14.36C51.6133 13.72 52.78 13.42 54.34 13.46V15.82C53.66 15.8067 53.1867 15.92 52.92 16.16C52.6533 16.4 52.52 16.8333 52.52 17.46V17.92H54.46V20.22ZM60.5145 29.18C59.6079 29.18 58.7945 29.02 58.0745 28.7C57.3545 28.3667 56.7812 27.92 56.3545 27.36C55.9412 26.8 55.7145 26.18 55.6745 25.5H58.4945C58.5479 25.9267 58.7545 26.28 59.1145 26.56C59.4879 26.84 59.9479 26.98 60.4945 26.98C61.0279 26.98 61.4412 26.8733 61.7345 26.66C62.0412 26.4467 62.1945 26.1733 62.1945 25.84C62.1945 25.48 62.0079 25.2133 61.6345 25.04C61.2745 24.8533 60.6945 24.6533 59.8945 24.44C59.0679 24.24 58.3879 24.0333 57.8545 23.82C57.3345 23.6067 56.8812 23.28 56.4945 22.84C56.1212 22.4 55.9345 21.8067 55.9345 21.06C55.9345 20.4467 56.1079 19.8867 56.4545 19.38C56.8145 18.8733 57.3212 18.4733 57.9745 18.18C58.6412 17.8867 59.4212 17.74 60.3145 17.74C61.6345 17.74 62.6879 18.0733 63.4745 18.74C64.2612 19.3933 64.6945 20.28 64.7745 21.4H62.0945C62.0545 20.96 61.8679 20.6133 61.5345 20.36C61.2145 20.0933 60.7812 19.96 60.2345 19.96C59.7279 19.96 59.3345 20.0533 59.0545 20.24C58.7879 20.4267 58.6545 20.6867 58.6545 21.02C58.6545 21.3933 58.8412 21.68 59.2145 21.88C59.5879 22.0667 60.1679 22.26 60.9545 22.46C61.7545 22.66 62.4145 22.8667 62.9345 23.08C63.4545 23.2933 63.9012 23.6267 64.2745 24.08C64.6612 24.52 64.8612 25.1067 64.8745 25.84C64.8745 26.48 64.6945 27.0533 64.3345 27.56C63.9879 28.0667 63.4812 28.4667 62.8145 28.76C62.1612 29.04 61.3945 29.18 60.5145 29.18ZM72.093 29.18C71.0263 29.18 70.0663 28.9467 69.213 28.48C68.3596 28 67.6863 27.3267 67.193 26.46C66.713 25.5933 66.473 24.5933 66.473 23.46C66.473 22.3267 66.7196 21.3267 67.213 20.46C67.7196 19.5933 68.4063 18.9267 69.273 18.46C70.1396 17.98 71.1063 17.74 72.173 17.74C73.2396 17.74 74.2063 17.98 75.073 18.46C75.9396 18.9267 76.6196 19.5933 77.113 20.46C77.6196 21.3267 77.873 22.3267 77.873 23.46C77.873 24.5933 77.613 25.5933 77.093 26.46C76.5863 27.3267 75.893 28 75.013 28.48C74.1463 28.9467 73.173 29.18 72.093 29.18ZM72.093 26.74C72.5996 26.74 73.073 26.62 73.513 26.38C73.9663 26.1267 74.3263 25.7533 74.593 25.26C74.8596 24.7667 74.993 24.1667 74.993 23.46C74.993 22.4067 74.713 21.6 74.153 21.04C73.6063 20.4667 72.933 20.18 72.133 20.18C71.333 20.18 70.6596 20.4667 70.113 21.04C69.5796 21.6 69.313 22.4067 69.313 23.46C69.313 24.5133 69.573 25.3267 70.093 25.9C70.6263 26.46 71.293 26.74 72.093 26.74ZM79.2069 23.42C79.2069 22.3 79.4269 21.3067 79.8669 20.44C80.3202 19.5733 80.9335 18.9067 81.7069 18.44C82.4802 17.9733 83.3402 17.74 84.2869 17.74C85.0069 17.74 85.6935 17.9 86.3469 18.22C87.0002 18.5267 87.5202 18.94 87.9069 19.46V14.2H90.7469V29H87.9069V27.36C87.5602 27.9067 87.0735 28.3467 86.4469 28.68C85.8202 29.0133 85.0935 29.18 84.2669 29.18C83.3335 29.18 82.4802 28.94 81.7069 28.46C80.9335 27.98 80.3202 27.3067 79.8669 26.44C79.4269 25.56 79.2069 24.5533 79.2069 23.42ZM87.9269 23.46C87.9269 22.78 87.7935 22.2 87.5269 21.72C87.2602 21.2267 86.9002 20.8533 86.4469 20.6C85.9935 20.3333 85.5069 20.2 84.9869 20.2C84.4669 20.2 83.9869 20.3267 83.5469 20.58C83.1069 20.8333 82.7469 21.2067 82.4669 21.7C82.2002 22.18 82.0669 22.7533 82.0669 23.42C82.0669 24.0867 82.2002 24.6733 82.4669 25.18C82.7469 25.6733 83.1069 26.0533 83.5469 26.32C84.0002 26.5867 84.4802 26.72 84.9869 26.72C85.5069 26.72 85.9935 26.5933 86.4469 26.34C86.9002 26.0733 87.2602 25.7 87.5269 25.22C87.7935 24.7267 87.9269 24.14 87.9269 23.46Z" fill="url(#paint0_linear_6_32)"/>
<path d="M94.7216 29.14C94.2149 29.14 93.7949 28.9867 93.4616 28.68C93.1416 28.36 92.9816 27.9667 92.9816 27.5C92.9816 27.0333 93.1416 26.6467 93.4616 26.34C93.7949 26.02 94.2149 25.86 94.7216 25.86C95.2149 25.86 95.6216 26.02 95.9416 26.34C96.2616 26.6467 96.4216 27.0333 96.4216 27.5C96.4216 27.9667 96.2616 28.36 95.9416 28.68C95.6216 28.9867 95.2149 29.14 94.7216 29.14Z" fill="#8395DF"/>
<path d="M97.9569 23.42C97.9569 22.3 98.1769 21.3067 98.6169 20.44C99.0702 19.5733 99.6769 18.9067 100.437 18.44C101.21 17.9733 102.07 17.74 103.017 17.74C103.844 17.74 104.564 17.9067 105.177 18.24C105.804 18.5733 106.304 18.9933 106.677 19.5V17.92H109.497V29H106.677V27.38C106.317 27.9 105.817 28.3333 105.177 28.68C104.55 29.0133 103.824 29.18 102.997 29.18C102.064 29.18 101.21 28.94 100.437 28.46C99.6769 27.98 99.0702 27.3067 98.6169 26.44C98.1769 25.56 97.9569 24.5533 97.9569 23.42ZM106.677 23.46C106.677 22.78 106.544 22.2 106.277 21.72C106.01 21.2267 105.65 20.8533 105.197 20.6C104.744 20.3333 104.257 20.2 103.737 20.2C103.217 20.2 102.737 20.3267 102.297 20.58C101.857 20.8333 101.497 21.2067 101.217 21.7C100.95 22.18 100.817 22.7533 100.817 23.42C100.817 24.0867 100.95 24.6733 101.217 25.18C101.497 25.6733 101.857 26.0533 102.297 26.32C102.75 26.5867 103.23 26.72 103.737 26.72C104.257 26.72 104.744 26.5933 105.197 26.34C105.65 26.0733 106.01 25.7 106.277 25.22C106.544 24.7267 106.677 24.14 106.677 23.46ZM113.652 16.6C113.158 16.6 112.745 16.4467 112.412 16.14C112.092 15.82 111.932 15.4267 111.932 14.96C111.932 14.4933 112.092 14.1067 112.412 13.8C112.745 13.48 113.158 13.32 113.652 13.32C114.145 13.32 114.552 13.48 114.872 13.8C115.205 14.1067 115.372 14.4933 115.372 14.96C115.372 15.4267 115.205 15.82 114.872 16.14C114.552 16.4467 114.145 16.6 113.652 16.6ZM115.032 17.92V29H112.232V17.92H115.032Z" fill="#EE6C4D"/>
<rect y="22.5" width="31.8198" height="31.8198" transform="rotate(-45 0 22.5)" fill="url(#paint1_linear_6_32)"/>
<g clip-path="url(#clip0_6_32)">
<path d="M36.1625 22.031C36.1089 22.015 36.0519 22.0005 35.9975 21.9852C35.8637 21.947 35.7303 21.9088 35.5918 21.8734L35.5904 21.8729C30.0263 20.4422 20.868 20.9933 20.2194 21.0342L20.2211 20.9549C20.2217 20.9389 20.2191 20.9231 20.2134 20.9084C20.2078 20.8938 20.1992 20.8805 20.1882 20.8694C20.1771 20.8584 20.1639 20.8497 20.1493 20.844C20.1346 20.8383 20.1188 20.8356 20.1029 20.8361L9.78727 21.0664L9.71297 24.3915C9.71297 24.3915 9.7027 24.622 9.89433 24.6178C10.3227 24.6087 10.3996 24.3682 10.639 24.213C10.9667 24.0003 11.5658 23.9865 11.5658 23.9865L20.1579 23.7949L20.1586 23.7634C20.586 23.8417 20.7557 25.3073 20.8226 26.382C20.8441 26.7292 20.8582 27.0772 20.8648 27.4257L20.8658 27.4794L20.8662 27.5038C31.3654 27.2685 36.1834 22.7184 36.657 22.2452L36.6604 22.2418C36.686 22.2162 36.699 22.2023 36.699 22.2023C36.5216 22.1413 36.3427 22.0842 36.1625 22.031M11.1834 22.5148C11.1785 22.5913 11.1442 22.6641 11.0879 22.7182C11.0315 22.7723 10.9574 22.8035 10.881 22.8052C10.8045 22.8069 10.7317 22.779 10.6776 22.7273C10.6235 22.6757 10.5923 22.6043 10.5906 22.528C10.5915 22.4891 10.5999 22.4503 10.6156 22.414C10.6313 22.3778 10.6538 22.3446 10.6819 22.3165C10.71 22.2883 10.7432 22.2658 10.7795 22.2501C10.8157 22.2344 10.8544 22.2259 10.8934 22.225C10.9323 22.2241 10.9707 22.231 11.0063 22.2451C11.042 22.2592 11.0742 22.2803 11.1011 22.3072C11.128 22.3341 11.1492 22.3663 11.1633 22.4019C11.1774 22.4375 11.1843 22.4759 11.1834 22.5148M21.5103 26.3558C21.412 24.5261 21.1142 23.7137 20.8044 23.3565L20.8421 21.6765C23.0001 21.5703 30.1002 21.3261 34.8617 22.4001C32.7212 23.8563 28.4086 26.0418 21.5103 26.3558Z" fill="white"/>
</g>
<defs>
<linearGradient id="paint0_linear_6_32" x1="82.5" y1="7" x2="82.5" y2="37" gradientUnits="userSpaceOnUse">
<stop stop-color="#8395DF"/>
<stop offset="1" stop-color="#E02EBD"/>
</linearGradient>
<linearGradient id="paint1_linear_6_32" x1="15.9099" y1="22.5" x2="15.9099" y2="54.3198" gradientUnits="userSpaceOnUse">
<stop stop-color="#FD7DB2"/>
<stop offset="1" stop-color="#281662"/>
</linearGradient>
<clipPath id="clip0_6_32">
<rect width="22.0971" height="21.1555" fill="white" transform="translate(7.07104 22.8477) rotate(-45)"/>
</clipPath>
</defs>
</svg>
